<?xml version="1.0" encoding="utf-8"?>
<!-- Generator: Adobe Illustrator 27.0.0, SVG Export Plug-In . SVG Version: 6.00 Build 0)  -->
<svg version="1.1" id="Layer_1" xmlns="http://www.w3.org/2000/svg" xmlns:xlink="http://www.w3.org/1999/xlink" x="0px" y="0px"
	 viewBox="0 0 512 512" style="enable-background:new 0 0 512 512;" xml:space="preserve">
<style type="text/css">
	.st0{fill:#C22328;stroke:#C22328;stroke-width:5;stroke-miterlimit:10;}
</style>
<path class="st0" d="M274.4,375.3c0-62.2-43.4-114.5-101.5-128.1c21.9-11,36.9-33.7,36.9-59.8c0-36.9-30.1-67-67-67s-67,30.1-67,67
	c0,26.1,15,48.8,36.9,59.8C54.6,260.8,11.2,313.1,11.2,375.3c0,2.9,2.4,5.3,5.3,5.3H269C272,380.6,274.4,378.2,274.4,375.3z
	 M86.4,187.3c0-31.1,25.3-56.3,56.3-56.3s56.3,25.3,56.3,56.3s-25.3,56.3-56.3,56.3S86.4,218.4,86.4,187.3z M21.9,370
	c2.8-64.2,55.9-115.6,120.8-115.6s118,51.4,120.8,115.6H21.9z M372.7,209.7c-21,0-38.1,17.1-38.1,38.1s17.1,38.1,38.1,38.1
	c21,0,38.1-17.1,38.1-38.1S393.7,209.7,372.7,209.7L372.7,209.7z M372.7,275.3c-15.1,0-27.5-12.3-27.5-27.5
	c0-15.1,12.3-27.5,27.5-27.5c15.1,0,27.5,12.3,27.5,27.5C400.2,263,387.8,275.3,372.7,275.3z M499.8,279.2c-0.4-1.7-1.5-3-3.1-3.7
	c-1.6-0.7-3.3-0.6-4.8,0.3L467.3,290c-1.4,0.8-3,1-4.6,0.6c-1.6-0.4-2.9-1.4-3.7-2.8c-1.7-2.9-0.7-6.6,2.2-8.3l24.7-14.3
	c1.5-0.8,2.4-2.3,2.6-4c0.2-1.7-0.4-3.4-1.7-4.5c-3.8-3.5-8-6.1-12.5-8c0-0.3,0-0.6,0-0.9c0-4.9-0.4-9.8-1-14.6
	c-1.2-8.6-8.4-14.8-17.1-14.8c0,0,0,0-0.1,0c-6.7,0-12.9-3.6-16.3-9.4c-3.3-5.8-3.3-13,0-18.8c4.3-7.5,2.6-16.9-4.2-22.2
	c-7.7-6.1-16.2-11-25.3-14.6c-8.1-3.2-17.1-0.1-21.4,7.4c-3.3,5.8-9.6,9.4-16.3,9.4c-6.7,0-12.9-3.6-16.3-9.4
	c-4.3-7.5-13.3-10.7-21.4-7.4c-9.1,3.6-17.6,8.6-25.3,14.6c-6.8,5.4-8.6,14.7-4.2,22.2c3.4,5.8,3.4,13,0,18.8
	c-3.3,5.8-9.6,9.4-16.3,9.4c0,0,0,0-0.1,0c-8.7,0-15.9,6.2-17.1,14.8c-0.7,4.8-1,9.7-1,14.6c0,4.9,0.4,9.8,1,14.6
	c1.2,8.6,8.4,14.8,17.1,14.8h0c6.7,0,12.9,3.6,16.3,9.4c3.3,5.8,3.3,13,0,18.8c-4.3,7.5-2.6,16.9,4.2,22.2
	c7.7,6.1,16.2,11,25.3,14.6c2.1,0.9,4.3,1.3,6.5,1.3c6,0,11.7-3.2,14.9-8.7c3.3-5.8,9.6-9.4,16.3-9.4c3.1,0,6.2,0.8,8.9,2.2l-16,16
	c-4.1,4.1-6.3,9.5-6.3,15.2c0,5.8,2.2,11.2,6.3,15.2l6.6,6.6c4.2,4.2,9.7,6.3,15.2,6.3c5.5,0,11-2.1,15.2-6.3l49.3-49.3
	c9.4,1.3,19-0.6,27.3-5.4C495.6,316.5,503.9,297.7,499.8,279.2L499.8,279.2z M372.7,314.8c-10.5,0-20.3,5.7-25.5,14.8
	c-1.7,2.9-5.1,4.1-8.2,2.9c-8.1-3.2-15.8-7.7-22.7-13.1c-2.6-2.1-3.3-5.7-1.6-8.5c5.3-9.1,5.3-20.4,0-29.4
	c-5.2-9.1-15-14.7-25.5-14.7c0,0,0,0-0.1,0c-3.3,0-6.1-2.4-6.6-5.7c-0.6-4.3-0.9-8.7-0.9-13.1c0-4.4,0.3-8.8,0.9-13.1
	c0.5-3.3,3.2-5.7,6.6-5.7c0,0,0,0,0.1,0c10.5,0,20.2-5.6,25.5-14.7c5.2-9.1,5.2-20.4,0-29.4c-1.7-2.9-1-6.5,1.6-8.5
	c6.9-5.5,14.5-9.9,22.7-13.1c3.1-1.2,6.6,0,8.2,2.9c5.2,9.1,15,14.8,25.5,14.8c10.5,0,20.3-5.7,25.5-14.8c1.7-2.9,5.1-4.1,8.2-2.9
	c8.1,3.2,15.8,7.7,22.7,13.1c2.6,2.1,3.3,5.7,1.6,8.5c-5.3,9.1-5.3,20.4,0,29.4c5.2,9.1,15,14.7,25.5,14.7c0,0,0,0,0.1,0
	c3.3,0,6.1,2.4,6.6,5.7c0.5,3.7,0.8,7.4,0.9,11.1c-9.3-1.3-19,0.4-27.6,5.4c-15.2,8.8-23.5,25.8-21.2,43.1l-25.6,25.6
	C384.4,316.6,378.7,314.8,372.7,314.8L372.7,314.8z M473.9,316.7c-6.9,4-14.9,5.3-22.7,3.7c-1.7-0.4-3.6,0.2-4.8,1.5l-51.3,51.3
	c-4.2,4.2-11.2,4.2-15.4,0l-6.6-6.6c-2.1-2-3.2-4.8-3.2-7.7s1.1-5.7,3.2-7.7l51.2-51.2c1.3-1.3,1.8-3.1,1.5-4.8
	c-2.8-13.7,3.5-27.6,15.6-34.6c5.1-2.9,10.7-4.4,16.3-4.4c5.5,0,10.9,1.4,15.8,4.1l-17.6,10.2c-8,4.6-10.7,14.8-6.1,22.8
	c2.2,3.9,5.8,6.6,10.1,7.8c4.3,1.2,8.8,0.6,12.7-1.7l17.6-10.2C490,300.4,484,310.9,473.9,316.7L473.9,316.7z M176.8,88.9
	c-1.8-2.3-1.4-5.7,0.9-7.5c45.3-36,108.8-36.4,154.4-2.1l-2.9-15.4c-0.6-2.9,1.3-5.7,4.2-6.2c2.9-0.6,5.7,1.3,6.2,4.2l5.5,28.7
	c0.5,2.8-1.3,5.6-4.1,6.2l-28.6,6.3c-0.4,0.1-0.8,0.1-1.2,0.1c-2.4,0-4.6-1.7-5.2-4.2c-0.6-2.9,1.2-5.7,4-6.3l17.1-3.8
	c-41.9-32.5-100.9-32.6-142.9,0.8C182,91.6,178.6,91.2,176.8,88.9L176.8,88.9z M344,423.1c1.8,2.3,1.4,5.7-0.9,7.5
	c-23.1,18.3-50.8,27.4-78.6,27.4c-26.7,0-53.4-8.5-75.8-25.3l2.9,15.4c0.6,2.9-1.3,5.7-4.2,6.2c-2.9,0.6-5.7-1.3-6.2-4.2l-5.5-28.7
	c-0.5-2.8,1.3-5.6,4.1-6.2l28.6-6.3c2.9-0.6,5.7,1.2,6.3,4s-1.2,5.7-4,6.3l-17.1,3.8c41.9,32.5,100.9,32.6,142.9-0.8
	C338.8,420.4,342.2,420.8,344,423.1L344,423.1z"/>
</svg>
