<?xml version="1.0" encoding="utf-8"?>
<!-- Generator: Adobe Illustrator 27.0.0, SVG Export Plug-In . SVG Version: 6.00 Build 0)  -->
<svg version="1.1" id="Layer_1" xmlns="http://www.w3.org/2000/svg" xmlns:xlink="http://www.w3.org/1999/xlink" x="0px" y="0px"
	 viewBox="0 0 512 512" style="enable-background:new 0 0 512 512;" xml:space="preserve">
<style type="text/css">
	.st0{fill:#C22328;}
</style>
<path class="st0" d="M185.3,132.1c0-17.1,13.9-30.9,30.9-30.9c17,0,30.9,13.9,30.9,30.9c0,17-13.9,30.9-30.9,30.9
	C199.2,163,185.3,149.2,185.3,132.1L185.3,132.1z M159.1,198v31h114.2v-31c0-16.4-12.8-29.8-28.9-30.9c-7.7,6.2-17.5,10-28.2,10
	s-20.5-3.7-28.2-9.9C171.9,168.4,159.1,181.8,159.1,198z M333.9,433.1H89.8c-11.4,0-20.7-9.3-20.7-20.7v-351
	c0-11.4,9.3-20.7,20.7-20.7h54.5V47c0,11.3,9.2,20.5,20.6,20.5h102.8c11.3,0,20.5-9.2,20.5-20.5v-6.2h54.5
	c11.4,0,20.7,9.3,20.7,20.7v158.6c0,3.9,3.1,7,7,7s7-3.1,7-7V61.5c0-19.1-15.6-34.7-34.7-34.7h-54.5v-6.2c0-11.3-9.2-20.5-20.6-20.5
	H164.8c-11.3,0-20.6,9.2-20.6,20.5v6.2H89.8c-19.1,0-34.7,15.6-34.7,34.7v351c0,19.1,15.6,34.7,34.7,34.7h244.1c3.9,0,7-3.1,7-7
	S337.7,433.1,333.9,433.1L333.9,433.1z M278.5,279.2H130.6c-3.9,0-7,3.1-7,7s3.1,7,7,7h147.8c3.9,0,7-3.1,7-7
	S282.3,279.2,278.5,279.2z M130.6,329.5h140.1c3.9,0,7-3.1,7-7s-3.1-7-7-7H130.6c-3.9,0-7,3.1-7,7S126.8,329.5,130.6,329.5
	L130.6,329.5z M276.8,351.8H130.6c-3.9,0-7,3.1-7,7s3.1,7,7,7h146.2c3.9,0,7-3.1,7-7S280.7,351.8,276.8,351.8z M123.6,395.2
	c0,3.9,3.1,7,7,7h171.1c3.9,0,7-3.1,7-7s-3.1-7-7-7H130.6C126.8,388.1,123.6,391.3,123.6,395.2z M456.9,324.6
	c0,22.2-8.4,44.4-25.3,61.2c-10.9,10.9-23.9,18.2-37.8,22.1v80.5c0,13-10.5,23.5-23.5,23.5c-13,0-23.5-10.5-23.5-23.5V408
	c-13.8-3.9-26.9-11.2-37.7-22.1c-33.8-33.8-33.8-88.7,0-122.5c33.8-33.8,88.7-33.8,122.5,0C448.4,280.3,456.9,302.5,456.9,324.6
	L456.9,324.6z M421.7,273.3c-14.2-14.1-32.8-21.2-51.3-21.2s-37.2,7.1-51.3,21.2c-28.3,28.3-28.3,74.4,0,102.7
	c28.3,28.3,74.3,28.3,102.7,0C450,347.7,450,301.6,421.7,273.3z M433.6,315.5v18.2c0,3.2-2.1,6-5.2,6.8l-10.9,2.8
	c-0.2,0.5-0.4,1-0.6,1.5l5.7,9.6c1.6,2.8,1.2,6.2-1.1,8.5l-12.9,12.9c-2.3,2.3-5.8,2.7-8.5,1.1l-9.6-5.7c-0.5,0.2-1,0.4-1.5,0.6
	l-2.8,10.9c-0.8,3.1-3.6,5.2-6.8,5.2h-18.2c-3.2,0-6-2.1-6.8-5.2l-2.8-10.9c-0.5-0.2-1-0.4-1.5-0.6l-9.6,5.7
	c-2.8,1.6-6.2,1.2-8.5-1.1l-12.9-12.9c-2.2-2.2-2.7-5.8-1.1-8.5l5.7-9.7c-0.2-0.5-0.4-1-0.6-1.4l-10.9-2.8c-3.1-0.8-5.2-3.6-5.2-6.8
	v-18.2c0-3.2,2.1-6,5.2-6.8l10.9-2.8c0.2-0.5,0.4-1,0.6-1.4l-5.7-9.7c-1.6-2.8-1.2-6.2,1.1-8.5l12.9-12.9c2.3-2.2,5.8-2.7,8.5-1.1
	l9.7,5.7c0.5-0.2,1-0.4,1.4-0.6l2.8-10.9c0.8-3.1,3.6-5.2,6.8-5.2h18.2c3.2,0,6,2.2,6.8,5.2l2.8,10.9c0.5,0.2,1,0.4,1.4,0.6l9.7-5.7
	c2.8-1.6,6.2-1.2,8.5,1.1l12.9,12.9c2.3,2.2,2.7,5.7,1.1,8.5l-5.7,9.6c0.2,0.5,0.4,1,0.6,1.5l10.9,2.8
	C431.5,309.6,433.6,312.3,433.6,315.5L433.6,315.5z M400.3,324.6c0-16.5-13.5-30-30-30c-16.5,0-30,13.5-30,30c0,16.5,13.4,30,30,30
	C386.9,354.6,400.3,341.2,400.3,324.6z"/>
</svg>
