<?xml version="1.0" encoding="utf-8"?>
<!-- Generator: Adobe Illustrator 27.0.0, SVG Export Plug-In . SVG Version: 6.00 Build 0)  -->
<svg version="1.1" id="Capa_1" xmlns="http://www.w3.org/2000/svg" xmlns:xlink="http://www.w3.org/1999/xlink" x="0px" y="0px"
	 viewBox="0 0 512 512" style="enable-background:new 0 0 512 512;" xml:space="preserve">
<style type="text/css">
	.st0{fill:#C22328;stroke:#C22328;stroke-width:4;stroke-miterlimit:10;}
</style>
<g>
	<path class="st0" d="M136.6,330.6c-2.3-3.6-7-4.8-10.7-2.5c-1,0.6-1.9,1.5-2.5,2.5l-19.4,31.3c-2.1,3.7-0.8,8.5,3,10.5
		c3.5,2,7.9,0.9,10.2-2.4l5-8.1v54.2c0,4.3,3.5,7.7,7.7,7.7s7.7-3.5,7.7-7.7v-54.2l5,8.1c2.4,3.5,7.2,4.5,10.8,2.1
		c3.3-2.3,4.4-6.7,2.4-10.2L136.6,330.6z"/>
	<path class="st0" d="M350.6,154.2c2.3,3.6,7,4.8,10.7,2.5c1-0.6,1.9-1.5,2.5-2.5l19.4-31.3c2.1-3.7,0.8-8.5-3-10.5
		c-3.5-2-7.9-0.9-10.2,2.4l-5,8.1V68.6c0-4.3-3.5-7.7-7.7-7.7s-7.7,3.5-7.7,7.7v54.2l-5-8.1c-2.4-3.5-7.2-4.5-10.8-2.1
		c-3.3,2.3-4.4,6.7-2.4,10.2L350.6,154.2z"/>
	<path class="st0" d="M248.2,281.5V204c0-39-28.3-71.2-64.5-75.5c-6.3,6.2-13.6,11.3-21.5,15.1h13.4c31.5,0,57.2,27.1,57.2,60.5
		v77.4c0,5-3.9,9.1-8.9,9.2H32.5c-5-0.1-9-4.3-8.9-9.4c0,0,0,0,0,0V204c0-33.2,25.6-60.3,57.2-60.3h13.4c-8-3.8-15.2-8.8-21.5-15
		c-36.3,4.2-64.5,36.4-64.5,75.5v77.4c0,13.5,10.9,24.6,24.4,24.7h191.3C237.4,306.2,248.3,295.1,248.2,281.5z"/>
	<path class="st0" d="M128.1,136c35.3,0,63.9-28.6,63.9-63.9S163.4,8.2,128.1,8.2S64.3,36.8,64.3,72.1S92.9,136,128.1,136z
		 M128.1,23.7c26.7,0,48.4,21.7,48.4,48.4s-21.7,48.4-48.4,48.4S79.7,98.8,79.7,72.1C79.8,45.4,101.4,23.7,128.1,23.7z"/>
	<path class="st0" d="M455.7,418.6h-43.4c-2.9,0-5.4,2.3-5.4,5.2v36.7c0.2,3.1,2.2,5.8,5.2,6.7l16.7,4.8c3.4,0.8,7,0.8,10.4,0
		l16.7-4.8c3-1,5-3.6,5.2-6.7v-36.7C461.1,420.9,458.7,418.6,455.7,418.6z M445.7,454.2l-10.6,3.1h-1h-1l-10.6-3.1v-20.1h23.2V454.2
		z"/>
	<path class="st0" d="M502.3,421.3c-3.4-54.2-72.7-65.5-72.7-65.5c-12-2.8-21.8-11.5-25.8-23.2c12.8-15.9,22-34.4,27.1-54.2
		c2-7.6,3.1-15.4,3.1-23.2c0-3.9-0.3-7.8-0.9-11.6c11.6-16,8.8-34.8,6.5-43.7c-0.8-2.5-3.1-4.1-5.7-3.9h-0.8c-1,0.1-2,0.1-3.1,0
		c-16.3,0-43.1-10.8-43.1-10.8c-10-4.3-20.8-6.5-31.6-6.5c-19.8,0.1-38.3,9.3-50.3,25c-16.6,5.5-19.4,27.1-18.1,45.7
		c0,1.9,0,3.8,0,5.8c0.5,29.5,10.9,57.9,29.4,80.8c-4.3,10.2-13.5,17.7-24.4,19.9c0,0-69.3,11.4-72.7,65.5
		c-2.5,20.6-2.7,41.3-0.7,62c1.3,11.6,11,20.4,22.6,20.6h239.3c11.5-0.3,21.1-9.1,22.2-20.6C504.2,462.6,504.1,441.9,502.3,421.3z
		 M373.9,464.6l-11.6,8.1l-11.6-8.3l9.5-53.5h1.2L373.9,464.6z M366.2,395.4h-11.1l-2.7-7.1c0-0.2,0-0.4,0-0.7H369L366.2,395.4z
		 M345.6,372.2l-20-21.5c0.9-1.3,1.8-2.7,2.6-3.9c9.2,6.4,20.1,9.8,31.2,9.9c11.7,0,23-4.1,32-11.6l0.6-0.5c1.5,2.9,3.3,5.6,5.2,8.2
		l-18.1,19.4H345.6z M316.9,364.1l16.1,17.3l2.5,6.3l-4.6,7.7l-18.8-26.1L316.9,364.1z M407.8,364.1l4.8,5.3l-18.7,26.1l-5.9-10
		L407.8,364.1z M381.6,333.1c-6.2,5.2-14,8.1-22.1,8.1c-12-0.3-23.3-5.7-31-15c-12.7-15.7-21.1-34.5-24.4-54.4
		c1.7-4.2,4.3-7.9,7.7-10.9l13.9,9.8c0.6,0.5,1.3,0.9,2.1,0.9c1.1,0,1.9-1,1.9-2.9l2.2-18.1c12.1,11.2,28.2,17.2,44.7,16.7
		c10.9,0,21.7-1.9,31.9-5.6c3.5-1.4,6.9-3.1,10.2-5c-0.1,6-1,11.9-2.5,17.7C409.4,298.8,396.9,320.2,381.6,333.1L381.6,333.1z
		 M310.1,218.2c3.1-1,5.9-3.1,7.7-5.8c9-11.5,22.9-18.3,37.5-18.4c8.8,0.2,17.5,2.1,25.5,5.8h0.3c2.8,1.1,26.6,10.5,45,11.6
		c1.8,16.6-6.1,28.6-23.6,35.6c-8.4,2.9-17.3,4.5-26.2,4.5c-12.5,0.5-24.8-3.9-34-12.4c-6.2-5.9-16-5.7-21.9,0.4
		c-1.7,1.8-3,4-3.7,6.4c-4.9-1.7-10.3-0.8-14.4,2.3C301.8,233.5,303.8,220.4,310.1,218.2z M234,481.5c-1.9-19.3-1.7-38.8,0.6-58.1
		v-0.7v-0.7c2.5-40,56.5-50.6,59.6-51.2l30.7,42.6c0.9,2.9,3.5,4.9,6.5,5.1c2.4-0.1,4.5-1.4,5.9-3.3l5.5-9.3l1.8,4.7l-8.9,51.1
		c-1,5.8,1.3,11.7,6.1,15.1l12.3,8.7c2.4,1.7,5.3,2.6,8.3,2.6h-121c-3.6-0.3-6.6-3-7.2-6.6L234,481.5z M487.1,481.5
		c-0.3,3.5-3.1,6.4-6.6,6.8H362.7c2.9,0,5.8-0.9,8.2-2.6l12.4-8.8c4.9-3.5,7.2-9.6,5.8-15.5l-11.9-51.3l2.9-7.7l7.7,12.8
		c1.4,1.9,3.5,3.2,5.9,3.3c2.9-0.2,5.4-2.2,6.3-5l30.2-42c11.6,2.6,54.5,14.8,56.8,50.6v0.5c1.6,19.7,1.7,39.4,0.2,59.1L487.1,481.5
		z"/>
</g>
</svg>
